<svg xmlns="http://www.w3.org/2000/svg" viewBox="0 0 900 1200" role="img" aria-labelledby="title desc">
<title>Автор</title>
<desc>Стилизованный художественный портрет автора</desc>
<defs>
  <linearGradient id="bg" x1="0" y1="0" x2="1" y2="1">
    <stop offset="0%" stop-color="#1b1d39"/>
    <stop offset="45%" stop-color="#6f4c7f"/>
    <stop offset="100%" stop-color="#f1a77e"/>
  </linearGradient>
  <linearGradient id="skin" x1="0" y1="0" x2="0" y2="1">
    <stop offset="0%" stop-color="#f3d3bf"/>
    <stop offset="100%" stop-color="#e0b299"/>
  </linearGradient>
  <linearGradient id="coat" x1="0" y1="0" x2="1" y2="1">
    <stop offset="0%" stop-color="#1d243f"/>
    <stop offset="100%" stop-color="#2f4f6c"/>
  </linearGradient>
  <radialGradient id="halo" cx="50%" cy="28%" r="50%">
    <stop offset="0%" stop-color="rgba(255,233,190,.95)"/>
    <stop offset="55%" stop-color="rgba(255,193,149,.45)"/>
    <stop offset="100%" stop-color="rgba(255,193,149,0)"/>
  </radialGradient>
</defs>
<rect width="900" height="1200" fill="url(#bg)"/>
<circle cx="450" cy="340" r="260" fill="url(#halo)"/>
<path d="M70 1040 C180 930, 310 850, 450 850 C600 850, 735 930, 830 1040 L830 1200 L70 1200 Z" fill="#121629" opacity=".72"/>
<path d="M290 466 C305 320, 390 250, 450 250 C510 250, 595 320, 610 466 C620 565, 584 680, 450 700 C316 680, 280 565, 290 466Z" fill="url(#skin)"/>
<path d="M287 438 C275 340, 332 228, 450 210 C569 228, 626 340, 613 438 C598 389, 571 352, 529 331 C486 308, 402 307, 352 340 C319 361, 300 394, 287 438Z" fill="#6a3f35"/>
<path d="M314 458 C337 363, 392 324, 450 322 C516 322, 569 360, 587 458 C576 418, 549 393, 516 378 C475 359, 418 360, 380 379 C348 394, 324 419, 314 458Z" fill="#8b5a4c"/>
<ellipse cx="392" cy="476" rx="18" ry="10" fill="#5e3a35"/><ellipse cx="508" cy="476" rx="18" ry="10" fill="#5e3a35"/>
<circle cx="392" cy="479" r="5" fill="#1f2431"/><circle cx="508" cy="479" r="5" fill="#1f2431"/>
<path d="M399 562 Q450 590 501 562" fill="none" stroke="#b96e6b" stroke-width="9" stroke-linecap="round"/>
<path d="M386 521 Q450 548 514 521" fill="none" stroke="#d59c90" stroke-width="7" stroke-linecap="round" opacity=".9"/>
<path d="M378 430 C355 450, 341 485, 339 523" fill="none" stroke="#6a3f35" stroke-width="20" stroke-linecap="round"/>
<path d="M522 430 C545 450, 559 485, 561 523" fill="none" stroke="#6a3f35" stroke-width="20" stroke-linecap="round"/>
<path d="M304 758 C338 708, 389 684, 450 684 C511 684, 562 708, 596 758 L647 1200 L253 1200 Z" fill="url(#coat)"/>
<path d="M358 735 Q450 776 542 735" fill="none" stroke="#edc79c" stroke-width="5" opacity=".5"/>
<path d="M451 697 L451 1200" stroke="rgba(255,255,255,.22)" stroke-width="2"/>
<text x="450" y="1080" text-anchor="middle" fill="rgba(255,245,235,.94)" font-family="Georgia, serif" font-size="54">Автор</text>
<text x="450" y="1134" text-anchor="middle" fill="rgba(255,230,220,.72)" font-family="Georgia, serif" font-size="25">Художественный портрет для сайта романа</text>
</svg>